<svg width="93" height="139" viewBox="0 0 93 139" fill="none" xmlns="http://www.w3.org/2000/svg">
<path d="M35.7979 44.34C35.7612 44.3033 35.7429 44.23 35.7429 44.12C35.6695 43.8267 35.7429 43.6617 35.9629 43.625C35.9995 43.5883 36.0545 43.57 36.1279 43.57C36.3845 43.57 36.5312 43.68 36.5679 43.9C36.6412 44.1567 36.6779 44.4133 36.6779 44.67C36.7145 44.9267 36.7512 45.2017 36.7879 45.495C36.8612 46.3017 36.8612 47.2917 36.7879 48.465C40.6745 47.915 44.5612 47.4017 48.4479 46.925C52.3712 46.4483 56.2945 46.0267 60.2179 45.66L61.0979 45.605C61.3179 45.605 61.4829 45.5867 61.5929 45.55H62.0329C62.2895 45.55 62.5462 45.55 62.8029 45.55C63.0595 45.5133 63.3345 45.495 63.6279 45.495C64.2512 45.495 64.9295 45.5317 65.6629 45.605C66.3962 45.6417 67.1112 45.7517 67.8079 45.935C68.5045 46.1183 69.1462 46.3933 69.7329 46.76C70.3195 47.1267 70.7779 47.6217 71.1079 48.245C71.1812 48.3183 71.2179 48.41 71.2179 48.52C71.2912 48.63 71.3279 48.74 71.3279 48.85C71.3279 48.96 71.3462 49.0883 71.3829 49.235V49.84C71.3462 50.28 71.1812 50.8117 70.8879 51.435C70.6312 52.0583 70.2462 52.37 69.7329 52.37C69.4762 52.37 69.2562 52.2967 69.0729 52.15C68.8529 51.9667 68.7062 51.7467 68.6329 51.49C68.5595 51.1967 68.6145 50.94 68.7979 50.72C68.8345 50.6467 68.8712 50.5733 68.9079 50.5C68.9445 50.4267 68.9629 50.3717 68.9629 50.335C69.0729 50.115 69.1279 49.9133 69.1279 49.73C69.1645 49.6933 69.1829 49.62 69.1829 49.51C69.1829 49.4 69.1462 49.2717 69.0729 49.125C68.8162 48.795 68.4495 48.5383 67.9729 48.355C67.5329 48.135 67.0379 47.9883 66.4879 47.915C65.9745 47.805 65.4612 47.75 64.9479 47.75C64.4345 47.7133 63.9762 47.695 63.5729 47.695C62.4729 47.695 61.3729 47.7317 60.2729 47.805C59.2095 47.8783 58.1279 47.9883 57.0279 48.135C55.2679 48.3183 53.5079 48.5017 51.7479 48.685C49.9879 48.8683 48.2279 49.0517 46.4679 49.235C44.8179 49.4183 43.1679 49.6017 41.5179 49.785C39.9045 49.9683 38.2729 50.1517 36.6229 50.335C36.3295 52.8283 35.8895 55.285 35.3029 57.705C34.7529 60.0883 34.1295 62.4717 33.4329 64.855C33.1029 66.0283 32.7912 67.0367 32.4979 67.88C32.2412 68.6867 32.0579 69.2917 31.9479 69.695L31.1229 72.28C31.1229 72.3533 31.1045 72.4083 31.0679 72.445C32.3879 72.5183 33.6895 72.5917 34.9729 72.665C36.2929 72.7383 37.5945 72.8117 38.8779 72.885C39.1712 72.9583 39.3179 73.1233 39.3179 73.38C39.2445 73.6367 39.0795 73.765 38.8229 73.765C36.1462 73.6183 33.4695 73.5083 30.7929 73.435C29.3995 77.6517 27.8962 81.7767 26.2829 85.81C24.6695 89.88 22.9645 93.9133 21.1679 97.91C20.9112 98.35 20.5629 98.57 20.1229 98.57C20.0495 98.57 19.9029 98.5333 19.6829 98.46C19.3895 98.35 19.1879 98.1483 19.0779 97.855C18.9679 97.5617 18.9862 97.2683 19.1329 96.975C20.7462 93.455 22.3229 89.935 23.8629 86.415C25.4029 82.9317 26.9062 79.3933 28.3729 75.8C28.4095 75.7267 28.4279 75.635 28.4279 75.525C28.4279 75.415 28.4462 75.3233 28.4829 75.25L28.6479 74.26C28.6845 74.1133 28.7029 73.985 28.7029 73.875C28.7029 73.7283 28.7212 73.5817 28.7579 73.435C27.4379 73.4717 26.0995 73.5633 24.7429 73.71C23.4229 73.8567 22.1029 74.0217 20.7829 74.205C20.1229 74.2783 19.5179 74.4067 18.9679 74.59H18.8579L18.7479 74.645C18.7112 74.7183 18.6562 74.8283 18.5829 74.975C18.5095 75.1217 18.4362 75.2867 18.3629 75.47C18.1429 75.8733 17.8129 76.075 17.3729 76.075C17.1529 76.075 16.9145 75.9833 16.6579 75.8C16.5845 75.69 16.5112 75.5983 16.4379 75.525C16.3645 75.415 16.3095 75.2867 16.2729 75.14C16.1995 74.9933 16.1629 74.9017 16.1629 74.865V74.205C16.1629 74.1683 16.1812 74.1317 16.2179 74.095V73.985L16.2729 73.875C16.3095 73.8017 16.3645 73.7283 16.4379 73.655C16.4379 73.6183 16.4562 73.5817 16.4929 73.545V73.49C16.4929 73.49 16.5295 73.4533 16.6029 73.38H16.6579C16.6945 73.3067 16.7129 73.27 16.7129 73.27C16.7495 73.27 16.7862 73.2517 16.8229 73.215C16.8229 73.215 16.8595 73.1783 16.9329 73.105C16.9695 73.0683 17.0062 73.05 17.0429 73.05C17.0795 73.0133 17.1162 72.9767 17.1529 72.94C17.1895 72.94 17.2262 72.9217 17.2629 72.885L17.3729 72.83C18.1429 72.5 19.0412 72.2983 20.0679 72.225C21.0945 72.115 22.0295 72.06 22.8729 72.06C23.3862 72.06 23.8995 72.0783 24.4129 72.115C24.9629 72.115 25.4945 72.1333 26.0079 72.17L27.0529 72.28C27.2362 72.28 27.4929 72.2983 27.8229 72.335C28.1529 72.335 28.5195 72.335 28.9229 72.335C28.9229 72.1517 28.9595 71.8767 29.0329 71.51C29.0329 71.1067 29.0512 70.8133 29.0879 70.63V70.19C29.1245 69.97 29.1429 69.75 29.1429 69.53C29.1795 69.2733 29.1979 69.035 29.1979 68.815C29.1979 67.055 29.0879 65.405 28.8679 63.865C28.6845 62.325 28.2812 60.7117 27.6579 59.025C27.6212 58.9883 27.6029 58.9517 27.6029 58.915C27.6029 58.8783 27.5845 58.8417 27.5479 58.805C27.5112 58.7317 27.4929 58.6767 27.4929 58.64C27.4929 58.6033 27.4745 58.5667 27.4379 58.53C27.3645 58.3467 27.2729 58.1817 27.1629 58.035C27.0895 57.8517 27.0162 57.6683 26.9429 57.485L26.6679 56.99C26.4112 56.5867 26.1362 56.2017 25.8429 55.835C25.5862 55.4317 25.3112 55.0283 25.0179 54.625C24.7612 54.3317 24.5045 54.0567 24.2479 53.8C23.9912 53.5433 23.7162 53.2683 23.4229 52.975L22.4879 52.26C22.4145 52.1867 22.3412 52.1317 22.2679 52.095L22.0479 51.93C22.0112 51.8933 21.9745 51.875 21.9379 51.875C21.9379 51.875 21.9195 51.8567 21.8829 51.82C20.3795 51.9667 18.8945 52.095 17.4279 52.205C15.9612 52.315 14.4579 52.425 12.9179 52.535C11.7445 52.6083 10.5895 52.6817 9.45287 52.755C8.3162 52.7917 7.1612 52.81 5.98787 52.81C4.99787 52.81 4.04454 52.755 3.12787 52.645H2.96287C2.55954 52.6083 2.11954 52.535 1.64287 52.425C1.1662 52.2783 0.836204 52.0033 0.652871 51.6C0.652871 51.5267 0.652871 51.4717 0.652871 51.435C0.616204 51.3983 0.597871 51.3433 0.597871 51.27C0.597871 51.16 0.616204 51.0683 0.652871 50.995C0.689538 50.885 0.744538 50.775 0.81787 50.665L1.31287 50.17C1.42287 50.06 1.5512 49.95 1.69787 49.84L2.30287 49.51C2.3762 49.4367 2.44954 49.4 2.52287 49.4C2.5962 49.3633 2.66954 49.3083 2.74287 49.235L2.85287 49.18C2.88954 49.18 2.9812 49.1433 3.12787 49.07C4.3012 48.5567 5.54787 48.2083 6.86787 48.025C8.1512 47.805 9.4162 47.695 10.6629 47.695C12.5329 47.695 14.3662 47.915 16.1629 48.355C17.9595 48.7583 19.6645 49.4183 21.2779 50.335C24.9079 49.9317 28.5379 49.4917 32.1679 49.015C32.7912 48.9417 33.4145 48.8683 34.0379 48.795C34.6612 48.7217 35.2845 48.6483 35.9079 48.575C35.9445 48.0617 35.9629 47.585 35.9629 47.145C35.9629 46.705 35.9629 46.2833 35.9629 45.88C35.8895 45.33 35.8345 44.9083 35.7979 44.615V44.34ZM23.3129 51.71C23.8262 52.1133 24.3029 52.535 24.7429 52.975C25.1829 53.415 25.6045 53.8917 26.0079 54.405L26.2279 54.625C26.3012 54.7717 26.3562 54.8633 26.3929 54.9L26.6129 55.175C26.6495 55.2483 26.6679 55.3033 26.6679 55.34C26.7045 55.34 26.7412 55.3767 26.7779 55.45L27.1079 56C27.1812 56.0733 27.2362 56.165 27.2729 56.275C27.3095 56.3483 27.3645 56.44 27.4379 56.55C27.5112 56.6233 27.5479 56.6967 27.5479 56.77C27.5845 56.8433 27.6395 56.9167 27.7129 56.99C27.8962 57.3567 28.0612 57.705 28.2079 58.035C28.3912 58.365 28.5379 58.7317 28.6479 59.135C28.7212 59.2817 28.7579 59.3733 28.7579 59.41C28.8312 59.63 28.9045 59.8317 28.9779 60.015L29.0329 60.29C29.3262 61.28 29.5462 62.27 29.6929 63.26C29.8395 64.25 29.9495 65.2583 30.0229 66.285C30.0595 67.0183 30.0779 67.7333 30.0779 68.43C30.0779 69.1267 30.0412 69.7867 29.9679 70.41C29.9679 70.5933 29.9495 70.7583 29.9129 70.905C29.9129 71.0517 29.9129 71.1983 29.9129 71.345C29.8762 71.4183 29.8579 71.51 29.8579 71.62V71.84C29.8212 71.9133 29.8029 72.0417 29.8029 72.225L29.9129 71.95C30.9762 69.1267 31.9295 66.2667 32.7729 63.37C33.6529 60.4733 34.4045 57.54 35.0279 54.57L35.1379 54.02C35.1745 53.8367 35.2112 53.6533 35.2479 53.47C35.2845 53.2867 35.3212 53.1033 35.3579 52.92C35.3579 52.8467 35.3579 52.755 35.3579 52.645C35.3945 52.535 35.4129 52.4433 35.4129 52.37C35.4862 52.04 35.5412 51.7283 35.5779 51.435C35.6145 51.105 35.6512 50.775 35.6879 50.445C33.5979 50.665 31.5262 50.885 29.4729 51.105C27.4562 51.325 25.4029 51.5267 23.3129 51.71ZM2.08287 50.995C2.00954 51.0683 2.00954 51.1417 2.08287 51.215C2.08287 51.2517 2.13787 51.3067 2.24787 51.38C2.35787 51.4533 2.50454 51.5083 2.68787 51.545C2.83454 51.545 2.9812 51.545 3.12787 51.545C3.5312 51.6183 3.9162 51.655 4.28287 51.655C4.61287 51.655 4.9612 51.655 5.32787 51.655C7.7112 51.655 10.0762 51.545 12.4229 51.325C14.8062 51.105 17.1895 50.8483 19.5729 50.555C19.2795 50.4083 19.0045 50.28 18.7479 50.17C18.4912 50.06 18.2162 49.95 17.9229 49.84L16.8229 49.51C16.7495 49.51 16.6945 49.51 16.6579 49.51C16.6212 49.4733 16.5845 49.455 16.5479 49.455C15.5945 49.235 14.6412 49.0517 13.6879 48.905C12.7712 48.7583 11.8179 48.685 10.8279 48.685C9.54454 48.685 8.22454 48.795 6.86787 49.015C5.5112 49.235 4.2462 49.6383 3.07287 50.225L3.01787 50.28C2.9812 50.3167 2.96287 50.335 2.96287 50.335C2.9262 50.335 2.88954 50.3533 2.85287 50.39C2.8162 50.39 2.79787 50.4083 2.79787 50.445C2.7612 50.445 2.72454 50.445 2.68787 50.445C2.61454 50.5183 2.55954 50.5733 2.52287 50.61C2.4862 50.61 2.44954 50.6283 2.41287 50.665L2.08287 50.995ZM73.5424 71.7C75.4324 71.37 76.8274 70.71 77.7274 69.72C78.6574 68.73 79.1224 67.29 79.1224 65.4C79.1224 63.36 78.5224 61.8 77.3224 60.72C76.1224 59.64 74.5324 59.025 72.5524 58.875H50.7274C49.8274 58.875 49.3774 58.425 49.3774 57.525V53.925C49.3774 53.025 49.8274 52.575 50.7274 52.575H72.8224C74.7424 52.575 76.2424 52.05 77.3224 51C78.4324 49.95 79.0474 48.255 79.1674 45.915C79.1374 45.165 79.0024 44.43 78.7624 43.71C78.5524 42.99 78.2074 42.33 77.7274 41.73C77.2774 41.1 76.6774 40.575 75.9274 40.155C75.1774 39.735 74.2624 39.45 73.1824 39.3H50.7274C49.8274 39.3 49.3774 38.85 49.3774 37.95V34.35C49.3774 33.45 49.8274 33 50.7274 33H73.1374C74.8174 33 76.3924 33.36 77.8624 34.08C79.3624 34.77 80.6524 35.7 81.7324 36.87C82.8424 38.04 83.7124 39.39 84.3424 40.92C84.9724 42.45 85.2874 44.04 85.2874 45.69C85.2874 47.64 84.8224 49.47 83.8924 51.18C82.9624 52.89 81.7774 54.345 80.3374 55.545C81.9274 56.745 83.1424 58.215 83.9824 59.955C84.8524 61.695 85.2874 63.555 85.2874 65.535C85.2874 67.215 84.9724 68.805 84.3424 70.305C83.7124 71.805 82.8424 73.125 81.7324 74.265C80.6224 75.405 79.3324 76.32 77.8624 77.01C76.3924 77.67 74.8024 78 73.0924 78H50.7274C49.8274 78 49.3774 77.55 49.3774 76.65V73.05C49.3774 72.15 49.8274 71.7 50.7274 71.7H73.5424Z" fill="white"/>
</svg>
