<svg width="214" height="66" viewBox="0 0 214 66" fill="none" xmlns="http://www.w3.org/2000/svg">
<path d="M35.4937 11.34C35.457 11.3033 35.4387 11.23 35.4387 11.12C35.3653 10.8267 35.4387 10.6617 35.6587 10.625C35.6953 10.5883 35.7503 10.57 35.8237 10.57C36.0803 10.57 36.227 10.68 36.2637 10.9C36.337 11.1567 36.3737 11.4133 36.3737 11.67C36.4103 11.9267 36.447 12.2017 36.4837 12.495C36.557 13.3017 36.557 14.2917 36.4837 15.465C40.3703 14.915 44.257 14.4017 48.1437 13.925C52.067 13.4483 55.9903 13.0267 59.9137 12.66L60.7937 12.605C61.0137 12.605 61.1787 12.5867 61.2887 12.55H61.7287C61.9853 12.55 62.242 12.55 62.4987 12.55C62.7553 12.5133 63.0303 12.495 63.3237 12.495C63.947 12.495 64.6253 12.5317 65.3587 12.605C66.092 12.6417 66.807 12.7517 67.5037 12.935C68.2003 13.1183 68.842 13.3933 69.4287 13.76C70.0153 14.1267 70.4737 14.6217 70.8037 15.245C70.877 15.3183 70.9137 15.41 70.9137 15.52C70.987 15.63 71.0237 15.74 71.0237 15.85C71.0237 15.96 71.042 16.0883 71.0787 16.235V16.84C71.042 17.28 70.877 17.8117 70.5837 18.435C70.327 19.0583 69.942 19.37 69.4287 19.37C69.172 19.37 68.952 19.2967 68.7687 19.15C68.5487 18.9667 68.402 18.7467 68.3287 18.49C68.2553 18.1967 68.3103 17.94 68.4937 17.72C68.5303 17.6467 68.567 17.5733 68.6037 17.5C68.6403 17.4267 68.6587 17.3717 68.6587 17.335C68.7687 17.115 68.8237 16.9133 68.8237 16.73C68.8603 16.6933 68.8787 16.62 68.8787 16.51C68.8787 16.4 68.842 16.2717 68.7687 16.125C68.512 15.795 68.1453 15.5383 67.6687 15.355C67.2287 15.135 66.7337 14.9883 66.1837 14.915C65.6703 14.805 65.157 14.75 64.6437 14.75C64.1303 14.7133 63.672 14.695 63.2687 14.695C62.1687 14.695 61.0687 14.7317 59.9687 14.805C58.9053 14.8783 57.8237 14.9883 56.7237 15.135C54.9637 15.3183 53.2037 15.5017 51.4437 15.685C49.6837 15.8683 47.9237 16.0517 46.1637 16.235C44.5137 16.4183 42.8637 16.6017 41.2137 16.785C39.6003 16.9683 37.9687 17.1517 36.3187 17.335C36.0253 19.8283 35.5853 22.285 34.9987 24.705C34.4487 27.0883 33.8253 29.4717 33.1287 31.855C32.7987 33.0283 32.487 34.0367 32.1937 34.88C31.937 35.6867 31.7537 36.2917 31.6437 36.695L30.8187 39.28C30.8187 39.3533 30.8003 39.4083 30.7637 39.445C32.0837 39.5183 33.3853 39.5917 34.6687 39.665C35.9887 39.7383 37.2903 39.8117 38.5737 39.885C38.867 39.9583 39.0137 40.1233 39.0137 40.38C38.9403 40.6367 38.7753 40.765 38.5187 40.765C35.842 40.6183 33.1653 40.5083 30.4887 40.435C29.0953 44.6517 27.592 48.7767 25.9787 52.81C24.3653 56.88 22.6603 60.9133 20.8637 64.91C20.607 65.35 20.2587 65.57 19.8187 65.57C19.7453 65.57 19.5987 65.5333 19.3787 65.46C19.0853 65.35 18.8837 65.1483 18.7737 64.855C18.6637 64.5617 18.682 64.2683 18.8287 63.975C20.442 60.455 22.0187 56.935 23.5587 53.415C25.0987 49.9317 26.602 46.3933 28.0687 42.8C28.1053 42.7267 28.1237 42.635 28.1237 42.525C28.1237 42.415 28.142 42.3233 28.1787 42.25L28.3437 41.26C28.3803 41.1133 28.3987 40.985 28.3987 40.875C28.3987 40.7283 28.417 40.5817 28.4537 40.435C27.1337 40.4717 25.7953 40.5633 24.4387 40.71C23.1187 40.8567 21.7987 41.0217 20.4787 41.205C19.8187 41.2783 19.2137 41.4067 18.6637 41.59H18.5537L18.4437 41.645C18.407 41.7183 18.352 41.8283 18.2787 41.975C18.2053 42.1217 18.132 42.2867 18.0587 42.47C17.8387 42.8733 17.5087 43.075 17.0687 43.075C16.8487 43.075 16.6103 42.9833 16.3537 42.8C16.2803 42.69 16.207 42.5983 16.1337 42.525C16.0603 42.415 16.0053 42.2867 15.9687 42.14C15.8953 41.9933 15.8587 41.9017 15.8587 41.865V41.205C15.8587 41.1683 15.877 41.1317 15.9137 41.095V40.985L15.9687 40.875C16.0053 40.8017 16.0603 40.7283 16.1337 40.655C16.1337 40.6183 16.152 40.5817 16.1887 40.545V40.49C16.1887 40.49 16.2253 40.4533 16.2987 40.38H16.3537C16.3903 40.3067 16.4087 40.27 16.4087 40.27C16.4453 40.27 16.482 40.2517 16.5187 40.215C16.5187 40.215 16.5553 40.1783 16.6287 40.105C16.6653 40.0683 16.702 40.05 16.7387 40.05C16.7753 40.0133 16.812 39.9767 16.8487 39.94C16.8853 39.94 16.922 39.9217 16.9587 39.885L17.0687 39.83C17.8387 39.5 18.737 39.2983 19.7637 39.225C20.7903 39.115 21.7253 39.06 22.5687 39.06C23.082 39.06 23.5953 39.0783 24.1087 39.115C24.6587 39.115 25.1903 39.1333 25.7037 39.17L26.7487 39.28C26.932 39.28 27.1887 39.2983 27.5187 39.335C27.8487 39.335 28.2153 39.335 28.6187 39.335C28.6187 39.1517 28.6553 38.8767 28.7287 38.51C28.7287 38.1067 28.747 37.8133 28.7837 37.63V37.19C28.8203 36.97 28.8387 36.75 28.8387 36.53C28.8753 36.2733 28.8937 36.035 28.8937 35.815C28.8937 34.055 28.7837 32.405 28.5637 30.865C28.3803 29.325 27.977 27.7117 27.3537 26.025C27.317 25.9883 27.2987 25.9517 27.2987 25.915C27.2987 25.8783 27.2803 25.8417 27.2437 25.805C27.207 25.7317 27.1887 25.6767 27.1887 25.64C27.1887 25.6033 27.1703 25.5667 27.1337 25.53C27.0603 25.3467 26.9687 25.1817 26.8587 25.035C26.7853 24.8517 26.712 24.6683 26.6387 24.485L26.3637 23.99C26.107 23.5867 25.832 23.2017 25.5387 22.835C25.282 22.4317 25.007 22.0283 24.7137 21.625C24.457 21.3317 24.2003 21.0567 23.9437 20.8C23.687 20.5433 23.412 20.2683 23.1187 19.975L22.1837 19.26C22.1103 19.1867 22.037 19.1317 21.9637 19.095L21.7437 18.93C21.707 18.8933 21.6703 18.875 21.6337 18.875C21.6337 18.875 21.6153 18.8567 21.5787 18.82C20.0753 18.9667 18.5903 19.095 17.1237 19.205C15.657 19.315 14.1537 19.425 12.6137 19.535C11.4403 19.6083 10.2853 19.6817 9.14867 19.755C8.01201 19.7917 6.85701 19.81 5.68367 19.81C4.69367 19.81 3.74034 19.755 2.82367 19.645H2.65867C2.25534 19.6083 1.81534 19.535 1.33867 19.425C0.862005 19.2783 0.532005 19.0033 0.348672 18.6C0.348672 18.5267 0.348672 18.4717 0.348672 18.435C0.312005 18.3983 0.293672 18.3433 0.293672 18.27C0.293672 18.16 0.312005 18.0683 0.348672 17.995C0.385338 17.885 0.440338 17.775 0.513671 17.665L1.00867 17.17C1.11867 17.06 1.247 16.95 1.39367 16.84L1.99867 16.51C2.072 16.4367 2.14534 16.4 2.21867 16.4C2.292 16.3633 2.36534 16.3083 2.43867 16.235L2.54867 16.18C2.58534 16.18 2.677 16.1433 2.82367 16.07C3.99701 15.5567 5.24367 15.2083 6.56367 15.025C7.84701 14.805 9.11201 14.695 10.3587 14.695C12.2287 14.695 14.062 14.915 15.8587 15.355C17.6553 15.7583 19.3603 16.4183 20.9737 17.335C24.6037 16.9317 28.2337 16.4917 31.8637 16.015C32.487 15.9417 33.1103 15.8683 33.7337 15.795C34.357 15.7217 34.9803 15.6483 35.6037 15.575C35.6403 15.0617 35.6587 14.585 35.6587 14.145C35.6587 13.705 35.6587 13.2833 35.6587 12.88C35.5853 12.33 35.5303 11.9083 35.4937 11.615V11.34ZM23.0087 18.71C23.522 19.1133 23.9987 19.535 24.4387 19.975C24.8787 20.415 25.3003 20.8917 25.7037 21.405L25.9237 21.625C25.997 21.7717 26.052 21.8633 26.0887 21.9L26.3087 22.175C26.3453 22.2483 26.3637 22.3033 26.3637 22.34C26.4003 22.34 26.437 22.3767 26.4737 22.45L26.8037 23C26.877 23.0733 26.932 23.165 26.9687 23.275C27.0053 23.3483 27.0603 23.44 27.1337 23.55C27.207 23.6233 27.2437 23.6967 27.2437 23.77C27.2803 23.8433 27.3353 23.9167 27.4087 23.99C27.592 24.3567 27.757 24.705 27.9037 25.035C28.087 25.365 28.2337 25.7317 28.3437 26.135C28.417 26.2817 28.4537 26.3733 28.4537 26.41C28.527 26.63 28.6003 26.8317 28.6737 27.015L28.7287 27.29C29.022 28.28 29.242 29.27 29.3887 30.26C29.5353 31.25 29.6453 32.2583 29.7187 33.285C29.7553 34.0183 29.7737 34.7333 29.7737 35.43C29.7737 36.1267 29.737 36.7867 29.6637 37.41C29.6637 37.5933 29.6453 37.7583 29.6087 37.905C29.6087 38.0517 29.6087 38.1983 29.6087 38.345C29.572 38.4183 29.5537 38.51 29.5537 38.62V38.84C29.517 38.9133 29.4987 39.0417 29.4987 39.225L29.6087 38.95C30.672 36.1267 31.6253 33.2667 32.4687 30.37C33.3487 27.4733 34.1003 24.54 34.7237 21.57L34.8337 21.02C34.8703 20.8367 34.907 20.6533 34.9437 20.47C34.9803 20.2867 35.017 20.1033 35.0537 19.92C35.0537 19.8467 35.0537 19.755 35.0537 19.645C35.0903 19.535 35.1087 19.4433 35.1087 19.37C35.182 19.04 35.237 18.7283 35.2737 18.435C35.3103 18.105 35.347 17.775 35.3837 17.445C33.2937 17.665 31.222 17.885 29.1687 18.105C27.152 18.325 25.0987 18.5267 23.0087 18.71ZM1.77867 17.995C1.70534 18.0683 1.70534 18.1417 1.77867 18.215C1.77867 18.2517 1.83367 18.3067 1.94367 18.38C2.05367 18.4533 2.20034 18.5083 2.38367 18.545C2.53034 18.545 2.677 18.545 2.82367 18.545C3.227 18.6183 3.612 18.655 3.97867 18.655C4.30867 18.655 4.657 18.655 5.02367 18.655C7.40701 18.655 9.77201 18.545 12.1187 18.325C14.502 18.105 16.8853 17.8483 19.2687 17.555C18.9753 17.4083 18.7003 17.28 18.4437 17.17C18.187 17.06 17.912 16.95 17.6187 16.84L16.5187 16.51C16.4453 16.51 16.3903 16.51 16.3537 16.51C16.317 16.4733 16.2803 16.455 16.2437 16.455C15.2903 16.235 14.337 16.0517 13.3837 15.905C12.467 15.7583 11.5137 15.685 10.5237 15.685C9.24034 15.685 7.92034 15.795 6.56367 16.015C5.207 16.235 3.942 16.6383 2.76867 17.225L2.71367 17.28C2.677 17.3167 2.65867 17.335 2.65867 17.335C2.622 17.335 2.58534 17.3533 2.54867 17.39C2.512 17.39 2.49367 17.4083 2.49367 17.445C2.457 17.445 2.42034 17.445 2.38367 17.445C2.31034 17.5183 2.25534 17.5733 2.21867 17.61C2.182 17.61 2.14534 17.6283 2.10867 17.665L1.77867 17.995ZM49.3532 32.955C49.1699 32.625 49.2066 32.3317 49.4632 32.075L50.2332 31.47C50.3432 31.36 50.4899 31.305 50.6732 31.305C50.8566 31.305 51.0216 31.3783 51.1682 31.525L51.4982 31.855C52.1949 32.5517 52.9466 33.12 53.7532 33.56C54.5599 34 55.4216 34.385 56.3382 34.715C56.3749 34.715 56.4116 34.7333 56.4482 34.77C56.4849 34.77 56.5216 34.77 56.5582 34.77L57.9882 35.155C58.6849 35.3017 59.4549 35.375 60.2982 35.375C61.3616 35.375 62.4066 35.2833 63.4332 35.1C64.4966 34.88 65.5416 34.6233 66.5682 34.33C66.8616 34.33 67.0266 34.44 67.0632 34.66C67.1732 34.88 67.0816 35.0633 66.7882 35.21L66.1832 35.375C65.6699 35.5217 65.0832 35.6683 64.4232 35.815C63.7999 35.9617 63.2316 36.0717 62.7182 36.145L62.3882 36.2C61.6916 36.31 60.9949 36.3833 60.2982 36.42C59.6016 36.4567 58.9049 36.475 58.2082 36.475C57.6582 36.475 57.1449 36.4383 56.6682 36.365C56.2282 36.2917 55.6416 36.2 54.9082 36.09C54.5049 35.98 54.0832 35.8517 53.6432 35.705C53.2399 35.5583 52.8366 35.3933 52.4332 35.21C52.5066 35.7233 52.5066 36.255 52.4332 36.805C52.3966 37.6117 52.1766 38.5833 51.7732 39.72C51.3699 40.82 50.8566 41.8833 50.2332 42.91C49.6466 43.9367 48.9499 44.8167 48.1432 45.55C47.3732 46.2833 46.5666 46.65 45.7232 46.65C45.1732 46.65 44.7699 46.4117 44.5132 45.935C44.2566 45.495 44.1282 45.0367 44.1282 44.56L44.1832 43.955C44.3666 41.865 44.8982 39.8667 45.7782 37.96C46.6216 36.0167 47.8132 34.3483 49.3532 32.955ZM50.2332 35.155C50.1599 34.8983 50.0866 34.66 50.0132 34.44C49.9766 34.1833 49.9032 33.945 49.7932 33.725C49.1332 34.3117 48.5466 34.99 48.0332 35.76C47.5199 36.53 47.0799 37.3367 46.7132 38.18C46.3099 39.0233 45.9982 39.9033 45.7782 40.82C45.5216 41.7 45.3566 42.5617 45.2832 43.405C45.2466 43.6617 45.2282 43.9917 45.2282 44.395C45.1916 44.7983 45.2649 45.0917 45.4482 45.275C45.4849 45.385 45.5766 45.44 45.7232 45.44C45.8699 45.44 45.9616 45.4217 45.9982 45.385H46.0532L46.1632 45.33C46.6399 45.0733 47.0982 44.67 47.5382 44.12C47.9782 43.5333 48.3632 42.91 48.6932 42.25C49.0599 41.5533 49.3532 40.8567 49.5732 40.16C49.8299 39.4633 50.0132 38.8583 50.1232 38.345C50.3432 37.2083 50.3799 36.145 50.2332 35.155ZM68.1521 32.955C67.9687 32.625 68.0054 32.3317 68.2621 32.075L69.0321 31.47C69.1421 31.36 69.2887 31.305 69.4721 31.305C69.6554 31.305 69.8204 31.3783 69.9671 31.525L70.2971 31.855C70.9937 32.5517 71.7454 33.12 72.5521 33.56C73.3587 34 74.2204 34.385 75.1371 34.715C75.1737 34.715 75.2104 34.7333 75.2471 34.77C75.2837 34.77 75.3204 34.77 75.3571 34.77L76.7871 35.155C77.4837 35.3017 78.2537 35.375 79.0971 35.375C80.1604 35.375 81.2054 35.2833 82.2321 35.1C83.2954 34.88 84.3404 34.6233 85.3671 34.33C85.6604 34.33 85.8254 34.44 85.8621 34.66C85.9721 34.88 85.8804 35.0633 85.5871 35.21L84.9821 35.375C84.4687 35.5217 83.8821 35.6683 83.2221 35.815C82.5987 35.9617 82.0304 36.0717 81.5171 36.145L81.1871 36.2C80.4904 36.31 79.7937 36.3833 79.0971 36.42C78.4004 36.4567 77.7037 36.475 77.0071 36.475C76.4571 36.475 75.9437 36.4383 75.4671 36.365C75.0271 36.2917 74.4404 36.2 73.7071 36.09C73.3037 35.98 72.8821 35.8517 72.4421 35.705C72.0387 35.5583 71.6354 35.3933 71.2321 35.21C71.3054 35.7233 71.3054 36.255 71.2321 36.805C71.1954 37.6117 70.9754 38.5833 70.5721 39.72C70.1687 40.82 69.6554 41.8833 69.0321 42.91C68.4454 43.9367 67.7487 44.8167 66.9421 45.55C66.1721 46.2833 65.3654 46.65 64.5221 46.65C63.9721 46.65 63.5687 46.4117 63.3121 45.935C63.0554 45.495 62.9271 45.0367 62.9271 44.56L62.9821 43.955C63.1654 41.865 63.6971 39.8667 64.5771 37.96C65.4204 36.0167 66.6121 34.3483 68.1521 32.955ZM69.0321 35.155C68.9587 34.8983 68.8854 34.66 68.8121 34.44C68.7754 34.1833 68.7021 33.945 68.5921 33.725C67.9321 34.3117 67.3454 34.99 66.8321 35.76C66.3187 36.53 65.8787 37.3367 65.5121 38.18C65.1087 39.0233 64.7971 39.9033 64.5771 40.82C64.3204 41.7 64.1554 42.5617 64.0821 43.405C64.0454 43.6617 64.0271 43.9917 64.0271 44.395C63.9904 44.7983 64.0637 45.0917 64.2471 45.275C64.2837 45.385 64.3754 45.44 64.5221 45.44C64.6687 45.44 64.7604 45.4217 64.7971 45.385H64.8521L64.9621 45.33C65.4387 45.0733 65.8971 44.67 66.3371 44.12C66.7771 43.5333 67.1621 42.91 67.4921 42.25C67.8587 41.5533 68.1521 40.8567 68.3721 40.16C68.6287 39.4633 68.8121 38.8583 68.9221 38.345C69.1421 37.2083 69.1787 36.145 69.0321 35.155ZM110.836 38.7C112.726 38.37 114.121 37.71 115.021 36.72C115.951 35.73 116.416 34.29 116.416 32.4C116.416 30.36 115.816 28.8 114.616 27.72C113.416 26.64 111.826 26.025 109.846 25.875H88.0209C87.1209 25.875 86.6709 25.425 86.6709 24.525V20.925C86.6709 20.025 87.1209 19.575 88.0209 19.575H110.116C112.036 19.575 113.536 19.05 114.616 18C115.726 16.95 116.341 15.255 116.461 12.915C116.431 12.165 116.296 11.43 116.056 10.71C115.846 9.99 115.501 9.33 115.021 8.73C114.571 8.1 113.971 7.575 113.221 7.155C112.471 6.735 111.556 6.45 110.476 6.3H88.0209C87.1209 6.3 86.6709 5.85 86.6709 4.95V1.35C86.6709 0.45 87.1209 0 88.0209 0H110.431C112.111 0 113.686 0.359999 115.156 1.08C116.656 1.77 117.946 2.7 119.026 3.87C120.136 5.04 121.006 6.39 121.636 7.92C122.266 9.45 122.581 11.04 122.581 12.69C122.581 14.64 122.116 16.47 121.186 18.18C120.256 19.89 119.071 21.345 117.631 22.545C119.221 23.745 120.436 25.215 121.276 26.955C122.146 28.695 122.581 30.555 122.581 32.535C122.581 34.215 122.266 35.805 121.636 37.305C121.006 38.805 120.136 40.125 119.026 41.265C117.916 42.405 116.626 43.32 115.156 44.01C113.686 44.67 112.096 45 110.386 45H88.0209C87.1209 45 86.6709 44.55 86.6709 43.65V40.05C86.6709 39.15 87.1209 38.7 88.0209 38.7H110.836ZM146.406 1.215C146.736 0.404999 147.366 0 148.296 0H151.941C152.871 0 153.501 0.404999 153.831 1.215L173.001 43.785C173.331 44.595 173.061 45 172.191 45H168.546C167.616 45 166.986 44.595 166.656 43.785L161.526 32.175H138.711L133.581 43.785C133.251 44.595 132.621 45 131.691 45H128.091C127.221 45 126.951 44.595 127.281 43.785L146.406 1.215ZM141.501 25.875H158.736L150.681 7.515C150.321 6.675 149.961 6.675 149.601 7.515L141.501 25.875ZM177.682 1.35C177.682 0.45 178.132 0 179.032 0H201.442C203.152 0 204.742 0.375 206.212 1.125C207.712 1.845 209.002 2.82 210.082 4.05C211.162 5.25 212.017 6.63 212.647 8.19C213.277 9.75 213.592 11.355 213.592 13.005C213.592 14.685 213.277 16.275 212.647 17.775C212.047 19.275 211.207 20.61 210.127 21.78C209.047 22.92 207.772 23.865 206.302 24.615C204.862 25.335 203.317 25.755 201.667 25.875L212.872 43.785C213.202 44.595 212.932 45 212.062 45H207.967C207.037 45 206.407 44.595 206.077 43.785L194.872 25.875H185.332C184.432 25.875 183.982 26.325 183.982 27.225V43.65C183.982 44.55 183.532 45 182.632 45H179.032C178.132 45 177.682 44.55 177.682 43.65V1.35ZM183.982 6.3V19.575H201.217C203.017 19.455 204.442 18.78 205.492 17.55C206.572 16.29 207.187 14.76 207.337 12.96C207.277 12.09 207.082 11.265 206.752 10.485C206.452 9.705 206.032 9.015 205.492 8.415C204.952 7.815 204.322 7.335 203.602 6.975C202.882 6.585 202.087 6.36 201.217 6.3H183.982Z" fill="white"/>
</svg>
